<?xml version="1.0" encoding="utf-8"?>
<!-- Generator: Adobe Illustrator 16.0.0, SVG Export Plug-In . SVG Version: 6.00 Build 0)  -->
<!DOCTYPE svg PUBLIC "-//W3C//DTD SVG 1.1//EN" "http://www.w3.org/Graphics/SVG/1.1/DTD/svg11.dtd">
<svg version="1.1" id="Layer_1" xmlns="http://www.w3.org/2000/svg" xmlns:xlink="http://www.w3.org/1999/xlink" x="0px" y="0px"
	 width="2000px" height="2000px" viewBox="0 0 2000 2000" enable-background="new 0 0 2000 2000" xml:space="preserve">
<path fill="#87243A" d="M883.333,1866.667l-750-750c-66.667-66.667-66.667-170.834,0-237.5l750-750
	c66.667-66.667,170.833-66.667,237.5,0l750,750c66.667,66.666,66.667,170.833,0,237.5l-750,750
	C1054.166,1933.333,945.833,1933.333,883.333,1866.667z"/>
<path fill="#FFFFFF" d="M900,1362.5c0-12.5,4.166-25,8.333-37.5s12.5-20.833,20.833-29.167C937.5,1287.5,950,1279.167,962.5,1275
	s25-8.333,41.666-8.333c16.667,0,29.167,4.166,41.667,8.333s25,12.5,33.333,20.833c8.334,8.334,16.667,16.667,20.834,29.167
	c4.166,12.5,8.333,25,8.333,37.5s-4.167,25-8.333,37.5c-4.167,12.5-12.5,20.833-20.834,29.167
	c-8.333,8.333-20.833,16.667-33.333,20.833c-12.5,4.167-25,8.334-41.667,8.334c-16.666,0-29.166-4.167-41.666-8.334
	s-20.834-12.5-33.334-20.833c-8.333-8.334-16.666-16.667-20.833-29.167S900,1379.167,900,1362.5z M1075,1170.833H925
	l-20.834-629.166h191.667L1075,1170.833z"/>
</svg>
